<?xml version="1.0" encoding="utf-8"?>
<!-- Generator: Adobe Illustrator 26.4.1, SVG Export Plug-In . SVG Version: 6.00 Build 0)  -->
<svg version="1.1" id="Layer_1" xmlns="http://www.w3.org/2000/svg" xmlns:xlink="http://www.w3.org/1999/xlink" x="0px" y="0px"
	 viewBox="0 0 49 51" style="enable-background:new 0 0 49 51;" xml:space="preserve">
<style type="text/css">
	.st0{fill:#DC5E29;}
	.st1{fill:none;stroke:#FFFFFF;stroke-width:2;}
</style>
<path class="st0" d="M20,0h9c11,0,20,9,20,20v11c0,11-9,20-20,20h-9C9,51,0,42,0,31V20C0,9,9,0,20,0z"/>
<path class="st1" d="M13,34.6h6.9c1.2,0,1.8,0,2.3,0.2c0.9,0.3,1.5,1,1.8,1.8c0.2,0.5,0.2,1.1,0.2,2.3V22c0-2.8,0-4.2-0.9-5.1
	C22.5,16,21.1,16,18.2,16H13c-0.9,0-1.4,0-1.7,0.3C11,16.6,11,17.1,11,18v14.6c0,0.9,0,1.4,0.3,1.7C11.6,34.6,12.1,34.6,13,34.6z"/>
<path class="st1" d="M35.5,34.6h-6.9c-1.2,0-1.8,0-2.3,0.2c-0.9,0.3-1.5,1-1.8,1.8c-0.2,0.5-0.2,1.1-0.2,2.3V22c0-2.8,0-4.2,0.9-5.1
	C26,16,27.4,16,30.2,16h5.2c0.9,0,1.4,0,1.7,0.3c0.3,0.3,0.3,0.8,0.3,1.7v14.6c0,0.9,0,1.4-0.3,1.7C36.9,34.6,36.4,34.6,35.5,34.6z"
	/>
</svg>
