<?xml version="1.0" encoding="UTF-8"?>
<svg id="Layer_1" data-name="Layer 1" xmlns="http://www.w3.org/2000/svg" viewBox="0 0 34.67 38.5">
  <defs>
    <style>
      .cls-1 {
        fill: #727784;
      }

      .cls-2 {
        stroke-linecap: round;
      }

      .cls-2, .cls-3 {
        fill: none;
        stroke: #727784;
        stroke-width: 4px;
      }
    </style>
  </defs>
  <path class="cls-3" d="M2,17.5c0-1.89,0-2.83,.59-3.41,.59-.59,1.53-.59,3.41-.59H28.67c1.89,0,2.83,0,3.41,.59,.59,.59,.59,1.53,.59,3.41v13c0,2.83,0,4.24-.88,5.12-.88,.88-2.29,.88-5.12,.88H8c-2.83,0-4.24,0-5.12-.88s-.88-2.29-.88-5.12v-13Z"/>
  <path class="cls-2" d="M25,11.58v-1.92c0-2.49,0-3.73-.43-4.7-.5-1.13-1.41-2.03-2.53-2.53-.97-.43-2.21-.43-4.7-.43h0c-2.49,0-3.73,0-4.7,.43-1.13,.5-2.03,1.41-2.53,2.53-.43,.97-.43,2.21-.43,4.7v1.92"/>
  <circle class="cls-1" cx="17.33" cy="25" r="3.83"/>
</svg>